<svg xmlns="http://www.w3.org/2000/svg" xmlns:xlink="http://www.w3.org/1999/xlink" viewBox="0 0 104.67 104.67"><defs><style>.cls-1{fill:none;}.cls-2{isolation:isolate;}.cls-3{fill:#f5834e;}.cls-4{clip-path:url(#clip-path);}.cls-5{fill:#ecb79e;}.cls-6{fill:#d1d3d4;}.cls-6,.cls-9{mix-blend-mode:multiply;}.cls-7{fill:#fff;}.cls-8{fill:#d83633;}.cls-9{fill:#bcbec0;}.cls-10{fill:#002331;}.cls-11{fill:#001221;}.cls-12{fill:#852a00;}.cls-13{fill:#963209;}</style><clipPath id="clip-path"><path class="cls-1" d="M104.67,52.33A52.34,52.34,0,1,1,52.33,0,52.34,52.34,0,0,1,104.67,52.33Z"/></clipPath></defs><g class="cls-2"><g id="Layer_2" data-name="Layer 2"><g id="Capa_1" data-name="Capa 1"><path class="cls-3" d="M104.67,52.33A52.34,52.34,0,1,1,52.33,0,52.34,52.34,0,0,1,104.67,52.33Z"/><g class="cls-4"><rect class="cls-5" x="43.86" y="67.91" width="16.88" height="8.88"/><path class="cls-6" d="M48.58,74.72A16.2,16.2,0,0,0,56,72.63a13.57,13.57,0,0,0,4.08-3.51,9.44,9.44,0,0,0,.63-.9v-.31H43.86v6.64A39.27,39.27,0,0,0,48.58,74.72Z"/><path class="cls-5" d="M52.31,19.13h0c-10.78.3-19,4.74-19,20,0,9.06.85,11.74,3.49,22.08,1.83,7.15,11.55,10.93,15.26,11.17l.24,0,.25,0c3.7-.24,13.42-4,15.25-11.17,2.64-10.34,3.47-13,3.49-22.08C71.33,23.87,63.1,19.43,52.31,19.13Z"/><path class="cls-5" d="M69.23,44.36l-1.18,9c4.63,2,5.35-8.58,5.35-8.58C72.33,42.15,69.23,44.36,69.23,44.36Z"/><path class="cls-5" d="M30.63,45.88S31.36,56.5,36,54.46l-1.18-9S31.7,43.23,30.63,45.88Z"/><path class="cls-5" d="M60.89,77.87l22.8,5.94S91.48,85,93.46,92l3.4,12.68H7.8L11.2,92c2-7,9.77-8.18,9.77-8.18l22.74-5.94Z"/><path class="cls-7" d="M7.8,104.67,11.2,92c2-7,9.77-8.18,9.77-8.18l22.74-5.94H60.89l22.8,5.94S91.48,85,93.46,92l3.4,12.68"/><polygon class="cls-8" points="53.8 76.79 52.36 76.79 52.31 76.79 50.87 76.79 46.69 83.37 50.42 87.58 52.31 87.58 52.36 87.58 54.24 87.58 57.98 83.37 53.8 76.79"/><path class="cls-9" d="M54.41,86.77a11.76,11.76,0,0,1-2.85-10h-.69l-4.18,6.58,3.73,4.21h3.82l.46-.52A4,4,0,0,1,54.41,86.77Z"/><polygon class="cls-9" points="60.77 72.63 52.27 77.07 57.87 85.51 68.05 79.39 60.77 72.63"/><polygon class="cls-7" points="60.77 72.63 52.27 77.07 57.97 84.39 67.49 78.88 60.77 72.63"/><polygon class="cls-9" points="43.81 72.35 52.27 76.79 46.71 85.23 36.54 79.1 43.81 72.35"/><polygon class="cls-7" points="43.81 72.35 52.32 76.79 46.61 84.11 37.1 78.6 43.81 72.35"/><path class="cls-10" d="M37.21,79.58,21,83.81S13.19,85,11.2,92L7.8,104.67H96.86L93.46,92c-2-7-9.77-8.18-9.77-8.18l-17-4.88L52.27,104Z"/><polygon class="cls-8" points="50.36 87.58 48.33 96.55 52.27 102.95 55.95 96.55 54.18 87.58 50.36 87.58"/><polygon class="cls-11" points="37.21 79.58 29.52 81.58 33.85 83.27 31.18 86.31 46.69 104.67 52.72 104.67 37.21 79.58"/><polygon class="cls-11" points="66.69 77.85 75.15 80.27 70.82 82.18 73.49 85.23 57.98 103.58 51.95 103.58 66.69 77.85"/><path class="cls-12" d="M33.56,45.48l1.69,10.15,1.4.91-1.4-14.25,2.4-5.68.58-4.68.07,0c1.72-6,15-5.28,15-5.28,15.77.32,13.64,11.28,13.64,11.28l2.32,4.93-1.4,14.24,1.4-.91L70.92,46c2.55-5.58,1-18.53,1-18.53s-1.92-5.28-6-5.89c0,0-1.91-8.83-14.46-7.24,0,0-11.68,2.7-15.49-4.05,0,0-.15,4.54,2.31,6.14,0,0-2.5-1.48-2.9-2.83,0,0,.18,2.84,1.73,3.82-.77-.45-3.61-2.28-4.63-4.92,0,0-.82,4.3,2.5,6.63,0,0-4.55-2.58-4.37-5.53,0,0-1.41,6,2.68,7.49,0,0-1.5,1.11-5.06-3.07,0,0-1,7.13,4,7.86C32.3,25.88,30.3,29.93,33.56,45.48Zm3.76-27.95h0Z"/><path class="cls-13" d="M33.52,31.53c.35.12,1.26.84,1.83,1.1-.05-1.88-.59-3.77-.46-5.75a31.64,31.64,0,0,0,3.16,1.29,4.75,4.75,0,0,1-.95-3.25c1.42-.19,2.57,1,3.9.95.12-1-.29-2-.22-3,2.09.32,4.26,1.23,6.36,1.56A16.94,16.94,0,0,1,46,21.83c2.64.52,5.29,1.35,7.95,1.83-.23-.72-1-1.35-1-2.18,2.81-.3,5.9,2.15,8.56,2.79a3.38,3.38,0,0,1-1.29-1.48,31.26,31.26,0,0,1,5.37,3.42,5.38,5.38,0,0,1-.68-.67c.78.6,1.57,1.23,2.29,1.9-.82-2-3.45-2.69-4-4.84a4.77,4.77,0,0,0,1.27,1.3c-.71-1.64-2.7-3.06-4-4.17a5,5,0,0,0-1.94-1.28,24.12,24.12,0,0,0,2,3c-1.24-.81-2.55-2.38-4-2.65.15.93,1.14,1.8,1.44,2.68-1.88-.82-3.54-3.71-5.63-3.91.28.51.71,1.07,1,1.56-1.07-.68-3.07-1.77-4.38-1.56a5.56,5.56,0,0,0,1.2,2.68c-1.52-.64-3-2.15-4.78-2.18.42.47,1,.84,1.42,1.32-1.14,0-4.39-1.75-5.36-.95-.67.55.16,1.29.25,2.06-.71-.34-3.1-1.94-3.94-1.23s.92,1.83,1.09,2.58c-1.19-.23-2.23-1.06-3.51-.95.16.58.71,1,1.05,1.55-.78-.05-1.47-.63-2.28-.42a3.5,3.5,0,0,0,.06,1.29c-.35-.13-.78-.34-1.17-.47a11,11,0,0,1,.71,1.57l-.21,0a3.56,3.56,0,0,1,.46,1.65c-.2-.15-.52-.19-.7-.31-.14.94.13,2,.08,2.92-.06.06-.23,0-.31,0,.24.17.32.4.53.57l-.18.05a3.1,3.1,0,0,1,0,3,2.62,2.62,0,0,1,.38-.91"/></g></g></g></g></svg>